<svg width="394" height="280" viewBox="0 0 394 280" fill="none" xmlns="http://www.w3.org/2000/svg">
<path d="M155.751 31.0978V62.0367L128.899 77.4902L128.876 15.6283L155.751 31.0978Z" fill="black"/>
<path d="M236.377 77.4643L209.502 62.0346V31.097L263.253 62.0214L236.4 77.4775L236.377 77.4643Z" fill="#0499DB"/>
<path d="M102 92.9723L128.876 77.5028L155.751 62.0346V92.9709L182.627 77.5028L209.503 92.9723L182.649 108.427L155.753 123.907L102 92.9723Z" fill="#0499DB"/>
<path d="M182.626 46.5659V77.5035L155.75 92.9717V31.0978L209.502 0.16014V31.0712V62.0354L182.626 46.5659Z" fill="white"/>
<path d="M155.753 154.854V123.909L182.627 108.441L209.503 123.909L155.753 154.854Z" fill="white"/>
<path d="M236.377 139.352L209.502 123.909L182.626 108.441L209.502 92.9724L182.626 77.5029V46.5653L209.502 62.0347L236.4 77.4763L236.377 139.352Z" fill="black"/>
<path fill-rule="evenodd" clip-rule="evenodd" d="M83.4523 240.247C73.5966 240.247 67.3185 232.678 67.3185 222.705C67.3185 212.663 73.5966 205.165 83.4523 205.165C93.2349 205.165 99.5869 212.663 99.5869 222.705C99.5869 232.678 93.2349 240.247 83.4523 240.247ZM83.4523 247.814C97.9802 247.814 108.348 237.19 108.348 222.705C108.348 208.222 97.9802 197.598 83.4523 197.598C68.8513 197.598 58.5586 208.222 58.5586 222.705C58.5586 237.19 68.8513 247.814 83.4523 247.814Z" fill="#0499DB"/>
<path fill-rule="evenodd" clip-rule="evenodd" d="M142.065 247.814C151.847 247.814 157.906 242.648 161.629 236.826L154.329 233.186C151.993 237.19 147.246 240.247 142.065 240.247C132.426 240.247 125.273 232.823 125.273 222.705C125.273 212.444 132.426 205.165 142.065 205.165C147.246 205.165 151.993 208.149 154.329 212.226L161.557 208.441C157.978 202.619 151.847 197.598 142.065 197.598C127.682 197.598 116.511 207.713 116.511 222.705C116.511 237.625 127.682 247.814 142.065 247.814Z" fill="black"/>
<path fill-rule="evenodd" clip-rule="evenodd" d="M180.762 221.322V246.941H172.22V198.396H193.611C203.248 198.396 209.599 204.582 209.599 213.609C209.599 222.197 203.904 226.926 197.991 227.873L209.964 246.941H200.035L189.303 228.819L184.864 221.322H192.515C197.334 221.322 200.838 218.267 200.838 213.534C200.838 208.877 197.334 205.893 192.515 205.893H180.762V221.322Z" fill="black"/>
<path fill-rule="evenodd" clip-rule="evenodd" d="M287.289 208.208L272.541 246.941H262.833L281.961 198.396H292.619L311.746 246.941H302.037L287.289 208.208Z" fill="black"/>
<path fill-rule="evenodd" clip-rule="evenodd" d="M334.703 246.941V205.893H349.45V198.396H311.414V205.893H326.16V246.941H334.703Z" fill="black"/>
<path fill-rule="evenodd" clip-rule="evenodd" d="M221.943 246.941H255.307V239.445H230.484V226.417H254.795V218.92H230.484V218.411V205.893H255.307V198.396H221.943V246.941Z" fill="black"/>
<path fill-rule="evenodd" clip-rule="evenodd" d="M368.753 205.893H393.574V198.396H360.21V246.941H393.574V239.445H368.753V226.417H393.063V218.92H368.753V218.411V205.893Z" fill="black"/>
<path fill-rule="evenodd" clip-rule="evenodd" d="M50.177 218.959H25.5212V226.454H41.3364C39.9442 234.513 34.0338 240.247 25.5212 240.247C15.6655 240.247 9.38682 232.678 9.38682 222.705C9.38682 212.663 15.6655 205.165 25.5212 205.165C31.2332 205.165 35.7759 207.721 38.5676 211.848L46.0198 207.872C41.6588 201.531 34.3603 197.598 25.5212 197.598C10.9202 197.598 0.626953 208.222 0.626953 222.705C0.626953 237.19 10.9202 247.814 25.5212 247.814C40.0499 247.814 50.4166 237.19 50.4166 222.705C50.4166 221.425 50.3354 220.174 50.177 218.959Z" fill="#0499DB"/>
<path d="M225.747 273.463L224.374 276.657H227.131L225.747 273.463ZM229.946 279.826H228.458L227.646 277.899H223.861L223.037 279.826H221.595L225.118 271.789H226.422L229.946 279.826Z" fill="#0499DB"/>
<path d="M243.891 279.826H242.187L239.452 276.235L238.207 277.512V279.826H236.8V271.846H238.207V275.859L242.015 271.846H243.743L240.414 275.276L243.891 279.826Z" fill="#0499DB"/>
<path d="M249.71 272.996C248.118 272.996 247.01 274.262 247.01 275.824C247.01 277.387 248.142 278.675 249.732 278.675C251.322 278.675 252.431 277.409 252.431 275.847C252.431 274.285 251.299 272.996 249.71 272.996ZM249.71 279.963C247.25 279.963 245.534 278.105 245.534 275.847C245.534 273.589 247.274 271.707 249.732 271.707C252.191 271.707 253.906 273.567 253.906 275.824C253.906 278.082 252.168 279.963 249.71 279.963Z" fill="#0499DB"/>
<path d="M259.895 279.963C257.562 279.963 255.823 278.15 255.823 275.847C255.823 273.567 257.527 271.707 259.953 271.707C261.427 271.707 262.321 272.222 263.086 272.951L262.182 273.988C261.542 273.395 260.857 272.996 259.941 272.996C258.407 272.996 257.298 274.25 257.298 275.824C257.298 277.397 258.407 278.675 259.941 278.675C260.925 278.675 261.553 278.275 262.239 277.637L263.143 278.55C262.307 279.415 261.393 279.963 259.895 279.963Z" fill="#0499DB"/>
<path d="M267.278 276.464V279.826H265.871V271.846H267.278V275.163H271.098V271.846H272.506V279.826H271.098V276.464H267.278Z" fill="#0499DB"/>
<path d="M283.763 279.963C281.43 279.963 279.691 278.15 279.691 275.847C279.691 273.567 281.395 271.707 283.82 271.707C285.295 271.707 286.188 272.222 286.954 272.951L286.05 273.988C285.41 273.395 284.724 272.996 283.81 272.996C282.275 272.996 281.166 274.25 281.166 275.824C281.166 277.397 282.275 278.675 283.81 278.675C284.792 278.675 285.422 278.275 286.107 277.637L287.011 278.55C286.176 279.415 285.26 279.963 283.763 279.963Z" fill="#0499DB"/>
<path d="M293.56 272.996C291.968 272.996 290.86 274.262 290.86 275.824C290.86 277.387 291.992 278.675 293.583 278.675C295.172 278.675 296.282 277.409 296.282 275.847C296.282 274.285 295.15 272.996 293.56 272.996ZM293.56 279.963C291.1 279.963 289.384 278.105 289.384 275.847C289.384 273.589 291.124 271.707 293.583 271.707C296.042 271.707 297.756 273.567 297.756 275.824C297.756 278.082 296.019 279.963 293.56 279.963Z" fill="#0499DB"/>
<path d="M300.258 271.846H301.664V278.55H305.872V279.826H300.258V271.846Z" fill="#0499DB"/>
<path d="M308.362 271.846H309.768V278.55H313.978V279.826H308.362V271.846Z" fill="#0499DB"/>
<path d="M319.932 273.463L318.559 276.657H321.315L319.932 273.463ZM324.128 279.826H322.642L321.83 277.899H318.044L317.22 279.826H315.78L319.302 271.789H320.607L324.128 279.826Z" fill="#0499DB"/>
<path d="M331.559 277.478C331.559 276.793 331.021 276.396 329.913 276.396H327.682V278.585H330.015C330.977 278.585 331.559 278.207 331.559 277.478ZM331.114 274.115C331.114 273.463 330.61 273.087 329.706 273.087H327.682V275.209H329.603C330.507 275.209 331.114 274.855 331.114 274.115ZM332.521 273.886C332.521 274.865 331.971 275.37 331.377 275.676C332.315 275.995 332.966 276.531 332.966 277.627C332.966 279.062 331.789 279.826 330.005 279.826H326.298V271.846H329.89C331.502 271.846 332.521 272.633 332.521 273.886Z" fill="#0499DB"/>
<path d="M339.171 272.996C337.581 272.996 336.473 274.262 336.473 275.824C336.473 277.387 337.605 278.675 339.195 278.675C340.785 278.675 341.894 277.409 341.894 275.847C341.894 274.285 340.762 272.996 339.171 272.996ZM339.171 279.963C336.713 279.963 334.997 278.105 334.997 275.847C334.997 273.589 336.737 271.707 339.195 271.707C341.654 271.707 343.369 273.567 343.369 275.824C343.369 278.082 341.631 279.963 339.171 279.963Z" fill="#0499DB"/>
<path d="M349.324 273.123H347.276V275.802H349.335C350.34 275.802 350.982 275.276 350.982 274.456C350.982 273.578 350.364 273.123 349.324 273.123ZM351.004 279.826L349.038 277.044H347.276V279.826H345.87V271.846H349.436C351.279 271.846 352.411 272.815 352.411 274.376C352.411 275.699 351.622 276.496 350.502 276.805L352.663 279.826H351.004Z" fill="#0499DB"/>
<path d="M358.858 273.463L357.484 276.657H360.242L358.858 273.463ZM363.056 279.826H361.568L360.756 277.899H356.971L356.147 279.826H354.706L358.228 271.789H359.532L363.056 279.826Z" fill="#0499DB"/>
<path d="M367.923 279.826H366.504V273.144H363.967V271.846H370.463V273.144H367.923V279.826Z" fill="#0499DB"/>
<path d="M374.69 271.846V279.826H373.283V271.846H374.69Z" fill="#0499DB"/>
<path d="M383.768 271.845H385.29L381.96 279.883H380.726L377.399 271.845H378.954L381.367 277.979L383.768 271.845Z" fill="#0499DB"/>
<path d="M393.395 273.099H388.866V275.175H392.882V276.429H388.866V278.572H393.452V279.826H387.459V271.846H393.395V273.099Z" fill="#0499DB"/>
</svg>
